<svg width="30" height="30" viewBox="0 0 30 30" fill="none" xmlns="http://www.w3.org/2000/svg">
	<g clip-path="url(#clip0_56_517)">
		<path d="M1.0875 16.1125L7.85 9.125C8.325 8.625 9.125 8.6125 9.6125 9.1C10.1125 9.575 10.125 10.375 9.6375 10.8625L3.2125 17.4875H23.75C25.8125 17.4875 27.5 15.8 27.5 13.7375V3.75C27.5 3.0625 28.0625 2.5 28.75 2.5C29.4375 2.5 30 3.0625 30 3.75V13.75C30 17.2 27.2 20 23.75 20H3.225L9.65 26.625C10.125 27.125 10.1125 27.9125 9.625 28.3875C9.3875 28.625 9.075 28.7375 8.75 28.7375C8.425 28.7375 8.1 28.6125 7.85 28.3625L1.1 21.3875C-0.362504 19.925 -0.362502 17.55 1.0875 16.1V16.1125Z" fill="currentColor" />
	</g>
	<defs>
		<clipPath id="clip0_56_517">
			<rect width="30" height="30" fill="currnetColor" transform="matrix(-1 0 0 1 30 0)" />
		</clipPath>
	</defs>
</svg>
