<svg width="288" height="59" viewBox="0 0 288 59" fill="none" xmlns="http://www.w3.org/2000/svg">
	<path d="M17.6196 34.03L28.8064 45.2946L39.9977 34.0254L46.5078 40.5716L46.5033 40.5762L28.8064 58.4009L11.1095 40.5854L11.1004 40.5762L17.6196 34.03ZM35.4075 29.3986L28.8064 36.0548L22.2053 29.4123L22.1962 29.3986L23.3608 28.2259L23.9249 27.6624L28.8064 22.747L35.4075 29.3986ZM44.5835 29.4032L51.0935 22.8478L57.5991 29.4032L51.0935 35.954L44.5835 29.4032ZM0 29.4032L6.51009 22.8478L13.0156 29.4032L6.51009 35.954L0 29.4032ZM17.6196 24.7718L28.8064 13.5117L39.9977 24.7809L46.5033 18.2255L28.8064 0.400879L11.1095 18.221L17.6196 24.7718Z" fill="#3D3F4F" />
	<path d="M67.7532 14.4554H81.9107C85.4228 14.4554 88.0796 15.3716 89.8811 17.204C91.2505 18.5737 92.0057 20.4473 91.9693 22.3897V22.4767C91.9829 23.2646 91.8737 24.048 91.6463 24.8039C91.4461 25.4544 91.1504 26.0682 90.7773 26.6363C90.427 27.1722 90.004 27.6532 89.5217 28.0655C89.0486 28.4732 88.53 28.8306 87.9795 29.1192C89.5718 29.678 91.0048 30.6217 92.1512 31.8678C93.1657 33.0267 93.6707 34.6301 93.6707 36.6778V36.7648C93.698 38.0429 93.4251 39.3073 92.8655 40.4571C92.3241 41.5153 91.5325 42.4224 90.559 43.0958C89.458 43.8379 88.2343 44.3739 86.9423 44.6762C85.4091 45.0427 83.8351 45.2168 82.261 45.203H67.7532V14.4554ZM80.4913 26.8882C81.7151 26.9478 82.9343 26.6821 84.0261 26.1186C84.8905 25.6101 85.4 24.6435 85.3272 23.6357V23.5487C85.3727 22.6233 84.9451 21.7346 84.1945 21.1986C83.4393 20.6581 82.3474 20.3878 80.9235 20.3878H74.2997V26.8882H80.4913ZM82.2792 39.2798C83.4984 39.3485 84.7131 39.0691 85.7822 38.469C86.6284 37.9238 87.1151 36.9527 87.0469 35.9403V35.8532C87.0787 34.8958 86.6375 33.9796 85.8686 33.4161C85.0861 32.8069 83.8214 32.4999 82.0745 32.4999H74.2997V39.2798H82.2792Z" fill="#3D3F4F" />
	<path d="M102.105 14.4554H108.824V45.2122H102.105V14.4554Z" fill="#3D3F4F" />
	<path d="M118.992 14.4554H125.188L139.51 33.3841V14.4554H146.143V45.2122H140.424L125.634 25.6605V45.2122H118.992V14.4554Z" fill="#3D3F4F" />
	<path d="M166.488 14.2355H172.675L185.763 45.2122H178.748L175.955 38.3133H163.039L160.246 45.2122H153.395L166.488 14.2355ZM173.557 32.3396L169.49 22.3622L165.441 32.3396H173.557Z" fill="#3D3F4F" />
	<path d="M193.028 14.4554H199.224L213.536 33.3841V14.4554H220.169V45.2122H214.451L199.661 25.6605V45.2122H193.028V14.4554Z" fill="#3D3F4F" />
	<path d="M244.354 45.7527C242.211 45.7711 240.091 45.3542 238.112 44.525C234.354 42.9629 231.379 39.9349 229.864 36.1326C229.073 34.1628 228.672 32.0601 228.686 29.9346V29.8475C228.65 25.6651 230.251 21.6292 233.14 18.6195C234.559 17.149 236.265 15.9854 238.144 15.1929C240.191 14.3408 242.384 13.9148 244.599 13.9423C245.91 13.9331 247.215 14.0522 248.503 14.295C249.604 14.5058 250.682 14.831 251.715 15.2616C252.652 15.6602 253.548 16.1595 254.376 16.755C255.186 17.3368 255.946 17.9827 256.651 18.6882L252.379 23.654C251.287 22.6416 250.063 21.7804 248.739 21.1024C247.438 20.4748 246.014 20.1633 244.572 20.1862C242.147 20.1587 239.827 21.1848 238.203 22.9989C237.407 23.8922 236.784 24.9321 236.365 26.0544C235.928 27.2409 235.706 28.5007 235.715 29.7696V29.8567C235.71 31.121 235.928 32.3808 236.365 33.5673C236.779 34.6942 237.398 35.7387 238.185 36.6411C239.795 38.4781 242.12 39.5226 244.554 39.4997C246.087 39.5501 247.607 39.2156 248.98 38.5331C250.291 37.8139 251.496 36.9297 252.579 35.8944L256.855 40.2464C256.1 41.071 255.281 41.836 254.412 42.5369C253.557 43.2194 252.629 43.8012 251.642 44.2731C250.591 44.7724 249.485 45.1389 248.348 45.3679C247.033 45.6336 245.696 45.7619 244.354 45.7527Z" fill="#3D3F4F" />
	<path d="M264.785 14.4554H287.772V20.4748H271.395V26.7141H285.816V32.7336H271.418V39.1928H288V45.2122H264.798L264.785 14.4554Z" fill="#3D3F4F" />
</svg>
