<svg width="28" height="28" viewBox="0 0 28 28" fill="none" xmlns="http://www.w3.org/2000/svg">
	<g clip-path="url(#clip0_7_306)">
		<path d="M8.56214 11.7658L13.9999 6.32797L19.4403 11.7681L22.6043 8.60414L13.9999 0L5.39838 8.60156L8.56225 11.7656M0 13.9999L3.1641 10.8354L6.32797 13.9993L3.16387 17.1634L0 13.9999ZM8.56214 16.2344L13.9999 21.6719L19.4402 16.2319L22.6059 19.3942L22.6043 19.3959L13.9999 27.9999L5.39838 19.3983L5.3939 19.3938L8.56248 16.2341M21.6719 14.0013L24.836 10.8372L27.9999 14.0011L24.8359 17.1652L21.6719 14.0013Z" fill="#F3BA2F" />
		<path d="M17.2089 13.9983H17.2102L13.9999 10.7877L11.6269 13.16L11.3543 13.4327L10.7921 13.995L10.7876 13.9994L10.7921 14.004L13.9999 17.2122L17.2104 14.0016L17.212 13.9998L17.2091 13.9983" fill="#F3BA2F" />
	</g>
	<defs>
		<clipPath id="clip0_7_306">
			<rect width="28" height="27.9999" fill="white" />
		</clipPath>
	</defs>
</svg>
