<svg width="339" height="59" viewBox="0 0 339 59" fill="none" xmlns="http://www.w3.org/2000/svg">
	<path d="M49.9377 34.8547C48.9208 35.4761 47.7345 35.5891 46.8307 35.0807C45.7009 34.4028 45.023 32.8775 45.023 30.7874V24.4039C45.023 21.3534 43.8367 19.1503 41.803 18.5854C38.3571 17.5686 35.7585 21.8054 34.7982 23.3871L28.6972 33.16V21.1275C28.6407 18.3594 27.7369 16.7212 26.0422 16.2128C24.9124 15.8739 23.2176 16.0433 21.5794 18.5289L7.96517 40.3343C6.15747 36.8884 5.19713 33.047 5.19713 29.1491C5.19713 15.9868 15.7609 5.31011 28.6972 5.31011C41.6336 5.31011 52.1973 15.9868 52.1973 29.1491V29.2056V29.2621C52.3103 31.8042 51.5194 33.8379 49.9377 34.8547ZM57.3944 29.1491V29.0927V29.0362C57.338 13.0493 44.4581 0 28.6972 0C12.8799 0 0 13.0493 0 29.1491C0 45.1925 12.8799 58.2983 28.6972 58.2983C35.9845 58.2983 42.8764 55.5302 48.1865 50.5026C49.2598 49.4858 49.3163 47.8475 48.2995 46.7742C47.3391 45.7009 45.7009 45.6444 44.6276 46.6047C44.6276 46.6047 44.6276 46.6047 44.5711 46.6612C40.2778 50.7285 34.5158 53.0447 28.5842 53.0447C21.6359 53.0447 15.4219 49.9942 11.1286 45.136L23.3871 25.4773V34.5722C23.3871 38.922 25.0818 40.3343 26.4941 40.7297C27.9063 41.1252 30.053 40.8427 32.3691 37.1708L39.0915 26.2681C39.3174 25.9292 39.4869 25.5902 39.7129 25.3643V30.9004C39.7129 34.9677 41.3511 38.2441 44.1756 39.8259C46.7177 41.2946 49.9377 41.1251 52.5927 39.4869C55.8692 37.3403 57.6204 33.6119 57.3944 29.1491ZM97.3898 19.2068C98.0677 19.6022 98.6891 20.5626 98.6891 21.4099C98.6891 22.7657 97.5592 23.8955 96.26 23.8955C95.921 23.8955 95.6386 23.7825 95.3561 23.726C93.8309 22.5962 91.9102 21.8619 89.8765 21.8619C85.0748 21.8619 81.7984 25.7597 81.7984 30.6179C81.7984 35.4761 85.1313 39.3175 89.8765 39.3175C92.2491 39.3175 94.3958 38.3571 95.9775 36.8319C96.3729 36.5494 96.8814 36.3799 97.3898 36.3799C98.6891 36.3799 99.7059 37.3968 99.7059 38.6961C99.7059 39.5434 99.1975 40.2778 98.5761 40.6732C96.26 42.6504 93.153 43.9497 89.933 43.9497C82.5892 43.9497 76.6012 37.9052 76.6012 30.4484C76.6012 22.9917 82.5892 16.9472 89.933 16.9472C92.6446 16.8907 95.2431 17.738 97.3898 19.2068ZM110.835 24.8559C115.862 24.8559 120.043 29.0927 120.043 34.3463C120.043 39.5434 115.806 44.0062 110.835 44.0062C105.581 44.0062 101.231 39.5999 101.231 34.3463C101.231 29.0927 105.581 24.8559 110.835 24.8559ZM110.778 39.3175C112.981 39.3175 114.845 37.2273 114.845 34.4028C114.845 31.5782 112.981 29.7705 110.778 29.7705C108.405 29.7705 106.428 31.5217 106.428 34.4028C106.428 37.1708 108.405 39.3175 110.778 39.3175ZM123.206 41.0687V27.7369C123.206 26.2681 124.336 25.0818 125.805 25.0818C127.217 25.0818 128.403 26.2681 128.403 27.7369V41.0687C128.403 42.5374 127.217 43.7237 125.805 43.7237C124.392 43.7237 123.206 42.4809 123.206 41.0687ZM122.811 20.0542C122.811 18.3029 124.166 16.9472 125.805 16.9472C127.499 16.9472 128.855 18.3594 128.855 20.0542C128.855 21.7489 127.499 23.1046 125.805 23.1046C124.11 23.0482 122.811 21.6924 122.811 20.0542ZM138.345 33.8379V41.0687C138.345 42.5374 137.159 43.7237 135.747 43.7237C134.335 43.7237 133.148 42.5374 133.148 41.0687V27.1155C133.148 25.9857 134.052 25.0818 135.182 25.0818C136.312 25.0818 137.159 26.0422 137.159 27.1155C139.249 25.1383 141.113 24.8559 142.865 24.8559C148.062 24.8559 150.378 28.7537 150.378 33.2165V41.0687C150.378 42.5374 149.192 43.7237 147.779 43.7237C146.367 43.7237 145.181 42.5374 145.181 41.0687V33.8379C145.181 31.5782 144.898 29.6576 141.622 29.6576C139.306 29.6576 138.345 31.5782 138.345 33.8379ZM167.212 36.6059C166.591 36.6059 166.195 36.3235 165.856 35.928L159.812 29.3751V41.0687C159.812 42.5374 158.626 43.7237 157.213 43.7237C155.801 43.7237 154.615 42.5374 154.615 41.0687V17.9075C154.784 17.5121 155.18 17.2296 155.575 17.2296C156.027 17.2296 156.422 17.6251 156.705 17.9075L166.365 28.7537C166.647 29.0926 166.986 29.2621 167.212 29.2621C167.382 29.2621 167.777 29.0926 168.059 28.7537L177.719 17.9075C178.002 17.6251 178.341 17.2296 178.849 17.2296C179.301 17.2296 179.697 17.5121 179.81 17.9075V41.0687C179.81 42.5374 178.68 43.7237 177.211 43.7237C175.799 43.7237 174.612 42.5374 174.612 41.0687V29.3751L168.568 35.928C168.116 36.3235 167.721 36.6059 167.212 36.6059ZM192.181 39.3175C194.497 39.3175 196.474 37.2273 196.474 34.4028C196.474 31.5782 194.441 29.7141 192.181 29.7141C189.921 29.7141 188.057 31.6347 188.057 34.4028C188.057 37.1143 189.865 39.3175 192.181 39.3175ZM197.717 41.6901L197.604 41.0687C196.587 43.0458 193.367 43.9497 191.334 43.9497C186.475 43.9497 182.86 39.5434 182.86 34.2898C182.86 29.0927 186.532 24.7994 191.616 24.7994C192.463 24.7994 195.401 25.0253 197.661 27.6804L197.774 27.059C197.774 25.9292 198.621 25.0253 199.751 25.0253C200.881 25.0253 201.784 25.9857 201.784 27.059V41.6336C201.784 42.7634 200.881 43.6672 199.751 43.6672C198.564 43.7237 197.717 42.7634 197.717 41.6901ZM216.076 29.6576H215.512C212.235 29.827 211.614 31.6912 211.614 33.8379V41.0687C211.614 42.5374 210.427 43.7237 209.015 43.7237C207.603 43.7237 206.417 42.5374 206.417 41.0687V27.1155C206.417 25.9857 207.32 25.0818 208.45 25.0818C209.58 25.0818 210.427 26.0422 210.427 27.1155C212.348 25.3078 213.93 24.9123 215.512 24.8559H216.02C217.263 24.8559 218.393 25.9292 218.393 27.285C218.449 28.5278 217.319 29.6576 216.076 29.6576ZM236.131 39.8259C236.357 40.2213 236.526 40.6167 236.526 41.0687C236.526 42.4244 235.283 43.6672 233.928 43.6672C233.024 43.6672 232.233 42.9893 231.611 42.1985L225.623 35.2501V41.0122C225.623 42.4809 224.437 43.6672 223.025 43.6672C221.613 43.6672 220.426 42.4809 220.426 41.0122V19.8282C220.426 18.3594 221.556 17.1731 223.025 17.1731C224.494 17.1731 225.623 18.3594 225.623 19.8282V33.047L231.611 26.4376C232.233 25.7597 232.967 25.0253 233.871 25.0253C235.17 25.0253 236.357 26.2116 236.357 27.5674C236.357 27.9629 236.244 28.4148 236.018 28.7537L231.272 33.9508L236.131 39.8259ZM246.299 29.7141C244.887 29.7141 242.571 30.4484 242.571 32.6516H250.084C250.027 30.4484 247.655 29.7141 246.299 29.7141ZM253.078 35.9845H242.571C242.571 39.0915 245.565 39.5999 246.864 39.5999C247.824 39.5999 249.18 39.4304 250.253 38.922C250.592 38.696 251.101 38.5266 251.609 38.5266C252.739 38.5266 253.699 39.4869 253.699 40.6732C253.699 41.4641 253.191 42.142 252.569 42.5374C250.988 43.7237 248.898 44.0062 246.92 44.0062C241.667 44.0062 237.317 41.1816 237.317 34.5722C237.317 29.3751 239.972 24.8559 246.186 24.8559C251.214 24.8559 254.999 28.1323 255.111 33.9508C255.111 35.0242 254.208 35.9845 253.078 35.9845ZM267.539 43.9497H266.127C262.173 43.9497 259.857 42.1985 259.857 36.041V29.6576H258.501C257.258 29.6576 256.185 28.5278 256.185 27.285C256.185 25.9292 257.315 24.8559 258.501 24.8559H259.857V19.9412C259.857 18.4724 260.987 17.2861 262.455 17.2861C263.868 17.2861 265.054 18.4724 265.054 19.9412V24.8559H267.2C268.443 24.8559 269.517 25.9292 269.517 27.285C269.517 28.5278 268.387 29.6576 267.2 29.6576H265.054V35.0242C265.054 38.5831 265.223 39.3175 266.805 39.3175H267.539C268.782 39.3175 269.856 40.3343 269.856 41.6336C269.856 42.8764 268.782 43.9497 267.539 43.9497ZM292.678 19.2068C293.356 19.6022 293.977 20.5626 293.977 21.4099C293.977 22.7657 292.847 23.8955 291.548 23.8955C291.209 23.8955 290.927 23.7825 290.644 23.726C289.119 22.5962 287.198 21.8619 285.164 21.8619C280.363 21.8619 277.086 25.7597 277.086 30.6179C277.086 35.4761 280.419 39.3175 285.164 39.3175C287.537 39.3175 289.684 38.3571 291.265 36.8319C291.661 36.5494 292.169 36.3799 292.678 36.3799C293.977 36.3799 294.994 37.3968 294.994 38.6961C294.994 39.5434 294.485 40.2778 293.864 40.6732C291.548 42.6504 288.441 43.9497 285.221 43.9497C277.877 43.9497 271.889 37.9052 271.889 30.4484C271.889 22.9917 277.877 16.9472 285.221 16.9472C287.932 16.8907 290.588 17.738 292.678 19.2068ZM305.84 39.3175C308.156 39.3175 310.133 37.2273 310.133 34.4028C310.133 31.5782 308.1 29.7141 305.84 29.7141C303.524 29.7141 301.716 31.6347 301.716 34.4028C301.716 37.1143 303.58 39.3175 305.84 39.3175ZM311.376 41.6901L311.263 41.0687C310.246 43.0458 307.026 43.9497 304.993 43.9497C300.134 43.9497 296.519 39.5434 296.519 34.2898C296.519 29.0927 300.191 24.7994 305.275 24.7994C306.122 24.7994 309.06 25.0253 311.32 27.6804L311.433 27.059C311.433 25.9292 312.28 25.0253 313.41 25.0253C314.54 25.0253 315.443 25.9857 315.443 27.059V41.6336C315.443 42.7634 314.54 43.6672 313.41 43.6672C312.223 43.7237 311.376 42.7634 311.376 41.6901ZM329.623 39.3175C331.939 39.3175 333.746 37.1143 333.746 34.4028C333.746 31.5782 331.882 29.7141 329.623 29.7141C327.306 29.7141 325.329 31.5782 325.329 34.4028C325.329 37.2273 327.306 39.3175 329.623 39.3175ZM325.329 42.4244V49.0338C325.329 50.5026 324.143 51.6889 322.731 51.6889C321.318 51.6889 320.132 50.5026 320.132 49.0338V27.1155C320.132 25.9857 321.036 25.0818 322.166 25.0818C323.296 25.0818 324.143 26.0422 324.143 27.3414C326.064 25.3643 328.436 24.8559 330.244 24.8559C335.272 24.8559 339 29.0927 339 34.3463C339 39.5434 335.441 44.0062 330.526 44.0062C329.001 43.9497 326.742 43.4978 325.329 42.4244Z" fill="#3D3F4F" />
</svg>
