<svg width="145" height="125" viewBox="0 0 145 125" fill="none" xmlns="http://www.w3.org/2000/svg">
	<path opacity="0.5" d="M11.658 33.3088C4.42213 46.7177 3.52276 63.3153 8.79637 77.6235C14.07 91.9317 25.353 103.828 39.1298 110.328C54.3375 117.523 71.6709 118.218 88.4728 118.545C98.0798 118.749 107.891 118.831 117.048 115.847C126.165 112.863 134.668 106.158 137.243 96.9192C139.001 90.6644 137.938 84.0009 136.385 77.7053C131.479 57.7555 121.382 38.7868 106.052 25.1327C94.5641 14.9125 80.0514 7.84017 64.7211 5.83701C51.5984 4.12002 38.7619 8.08545 27.8059 15.5257C21.1015 20.0635 15.4599 26.1956 11.6171 33.3497L11.658 33.3088Z" fill="url(#paint0_linear_1_494)" />
	<path opacity="0.5" d="M137.121 25.7049C129.231 12.6639 115.372 3.50667 100.369 0.849428C85.3659 -1.80782 69.4224 1.87145 56.7902 10.4564C42.8908 19.9407 33.5291 34.5351 24.7398 48.8434C19.7115 57.0195 14.6831 65.4409 12.6391 74.8435C10.5951 84.246 12.0668 94.9159 18.7303 101.866C23.2272 106.526 29.5228 109.02 35.7367 110.859C55.4412 116.705 76.9035 117.605 96.4445 111.309C111.08 106.567 124.53 97.614 133.973 85.4316C142.108 74.9661 145.174 61.8843 144.316 48.6798C143.784 40.5855 141.332 32.6546 137.162 25.7049H137.121Z" fill="url(#paint1_linear_1_494)" />
	<path d="M35.573 25.0098C23.9629 39.9313 21.7144 60.5351 10.1043 75.4975C7.77412 78.5226 5.076 81.2616 3.03196 84.4503C0.947048 87.639 -0.442895 91.4818 0.129435 95.2428C0.906168 100.189 4.87159 103.95 8.83702 106.976C16.8496 113.067 25.9252 117.768 35.5321 120.793C69.4631 131.586 108.749 118.954 125.878 86.8623C126.982 84.7365 128.004 82.5698 128.904 80.3623C134.382 66.5855 134.954 50.7238 129.353 36.9879C116.966 6.73615 78.048 -2.17584 50.5353 12.5412C44.8938 15.5664 39.8246 19.6136 35.8183 24.6419L35.5321 25.0098H35.573Z" fill="url(#paint2_linear_1_494)" />
	<path opacity="0.7" d="M69.9945 116.91C99.2102 116.91 122.894 93.2256 122.894 64.01C122.894 34.7943 99.2102 11.1104 69.9945 11.1104C40.7789 11.1104 17.0949 34.7943 17.0949 64.01C17.0949 93.2256 40.7789 116.91 69.9945 116.91Z" fill="url(#paint3_linear_1_494)" />
	<path fill-rule="evenodd" clip-rule="evenodd" d="M65.3341 64.5824V96.9599C65.3341 97.4096 65.702 97.8184 66.1926 97.8184H78.2115C78.6612 97.8184 79.07 97.4505 79.07 96.9599V64.0918H87.7776C88.2273 64.0918 88.5952 63.7648 88.6361 63.3151L89.4946 53.3811C89.5354 52.8905 89.1675 52.4817 88.6361 52.4817H79.07V45.4502C79.07 43.815 80.4191 42.4659 82.0543 42.4659H88.7587C89.2084 42.4659 89.6172 42.098 89.6172 41.6074V31.6734C89.6172 31.2237 89.2493 30.8149 88.7587 30.8149H77.3939C70.7303 30.8149 65.3341 36.2112 65.3341 42.8747V52.4408H59.3246C58.8749 52.4408 58.4661 52.8088 58.4661 53.2993V63.2333C58.4661 63.683 58.8341 64.0918 59.3246 64.0918H65.3341V64.6233V64.5824Z" fill="white" />
	<defs>
		<linearGradient id="paint0_linear_1_494" x1="22.287" y1="19.7773" x2="120.482" y2="117.932" gradientUnits="userSpaceOnUse">
			<stop stop-color="#3C5A99" />
			<stop offset="1" stop-color="#2B1E99" />
		</linearGradient>
		<linearGradient id="paint1_linear_1_494" x1="143.356" y1="41.675" x2="9.00616" y2="76.7003" gradientUnits="userSpaceOnUse">
			<stop stop-color="#3C5A99" />
			<stop offset="1" stop-color="#2B1E99" />
		</linearGradient>
		<linearGradient id="paint2_linear_1_494" x1="29.7679" y1="30.3243" x2="108.177" y2="108.733" gradientUnits="userSpaceOnUse">
			<stop stop-color="#3C5A99" />
			<stop offset="1" stop-color="#2B1E99" />
		</linearGradient>
		<linearGradient id="paint3_linear_1_494" x1="32.5887" y1="26.6041" x2="107.4" y2="101.416" gradientUnits="userSpaceOnUse">
			<stop stop-color="#3C5A99" />
			<stop offset="1" stop-color="#2B1E99" />
		</linearGradient>
	</defs>
</svg>
