<?xml version="1.0" encoding="UTF-8"?>
<svg id="Layer_2" data-name="Layer 2" xmlns="http://www.w3.org/2000/svg" xmlns:xlink="http://www.w3.org/1999/xlink" viewBox="0 0 254.25 328.19">
  <defs>
    <style>
      .cls-1 {
        fill: url(#linear-gradient);
      }

      .cls-2 {
        fill: url(#linear-gradient-4);
      }

      .cls-3 {
        fill: url(#linear-gradient-3);
      }

      .cls-3, .cls-4, .cls-5 {
        fill-rule: evenodd;
      }

      .cls-4 {
        fill: url(#linear-gradient-2);
      }

      .cls-5 {
        fill: url(#linear-gradient-5);
      }
    </style>
    <linearGradient id="linear-gradient" x1="146.67" y1="728.14" x2="171.61" y2="981.85" gradientTransform="translate(0 -686.31)" gradientUnits="userSpaceOnUse">
      <stop offset="0" stop-color="#76ff9c"/>
      <stop offset="1" stop-color="#4bbf6b"/>
    </linearGradient>
    <linearGradient id="linear-gradient-2" x1="279.46" y1="545.35" x2="146.29" y2="974.76" gradientTransform="translate(0 -686.31)" gradientUnits="userSpaceOnUse">
      <stop offset="0" stop-color="#fff"/>
      <stop offset="1" stop-color="#fff" stop-opacity="0"/>
    </linearGradient>
    <linearGradient id="linear-gradient-3" x1="163.82" y1="773.05" x2="86.32" y2="937.01" xlink:href="#linear-gradient"/>
    <linearGradient id="linear-gradient-4" x1="301.03" y1="-890.9" x2="325.97" y2="-637.19" gradientTransform="translate(408.61 -604.54) rotate(-180)" xlink:href="#linear-gradient"/>
    <linearGradient id="linear-gradient-5" x1="433.82" y1="-1073.69" x2="300.65" y2="-644.27" gradientTransform="translate(408.61 -604.54) rotate(-180)" xlink:href="#linear-gradient-2"/>
  </defs>
  <g id="Layer_2-2" data-name="Layer 2">
    <g>
      <g>
        <path class="cls-1" d="m223.66,0l-29.83,55.59-11.09,20.68c8.34,5.31,15.99,11.83,22.62,19.49,5.12,5.89,9.64,12.44,13.45,19.64,26.73,50.64,7.33,113.58-43.24,140.28-29.21,15.42-62.55,15.43-90.65,2.94l-11.09,20.68c34.77,16.05,76.32,16.32,112.7-2.89,62-32.72,85.77-109.87,53-171.96-7.52-14.25-17.37-26.48-28.87-36.46L223.66,0Z"/>
        <path class="cls-4" d="m206.79,69.34l9.02-47.24-28.42,52.98c7.56,5.13,14.52,11.27,20.65,18.34,5.3,6.09,9.97,12.87,13.9,20.31,27.64,52.37,7.59,117.46-44.72,145.08-29.16,15.4-62.31,15.94-90.71,4.34l-7.75,14.45c33.09,14.07,71.94,13.71,106.1-4.33,60.27-31.81,83.38-106.81,51.52-167.17-7.32-13.86-16.89-25.75-28.05-35.44l-1.54-1.34h0Zm-129.7,211.41c-1.09-.47-2.18-.95-3.25-1.44l11.09-20.68c28.1,12.49,61.44,12.48,90.65-2.94,50.57-26.69,69.97-89.65,43.24-140.28-3.8-7.2-8.33-13.75-13.45-19.64-6.63-7.66-14.29-14.18-22.62-19.49L223.66,0l-13,68c11.5,9.98,21.34,22.21,28.87,36.46,32.77,62.09,9,139.24-53,171.96-35.24,18.6-75.35,18.93-109.44,4.33Z"/>
      </g>
      <path class="cls-3" d="m127.11,247.12c45.69,0,82.73-37.04,82.73-82.73s-37.04-82.73-82.73-82.73-82.73,37.04-82.73,82.73,37.04,82.73,82.73,82.73Zm-25.42-125.3l-15.94,80.29h43.85c6.91,0,13.09-.92,18.57-2.76,5.55-1.83,9.91-4.62,13.1-8.37,3.26-3.75,4.9-8.53,4.9-14.33s-2.16-10.32-6.49-13.54c-1.24-.92-2.61-1.71-4.1-2.38,4.16-1.81,7.5-4.3,10.03-7.5,2.73-3.44,4.1-7.65,4.1-12.62,0-6.04-2.35-10.67-7.06-13.88-4.71-3.29-11.58-4.93-20.61-4.93h-40.32l-.02.02Zm29.16,63.89h-19.58l3.24-16.29h19.88c2.73,0,4.98.53,6.72,1.61,1.75,1.08,2.61,2.79,2.61,5.16,0,3.13-1.17,5.51-3.54,7.11-2.28,1.61-5.39,2.41-9.34,2.41h.01Zm-13.22-32l3.09-15.48h15.94c2.96,0,5.27.5,6.94,1.49,1.67.99,2.51,2.6,2.51,4.81,0,1.99-.45,3.67-1.37,5.05-.91,1.37-2.32,2.41-4.21,3.1-1.82.69-4.07,1.03-6.72,1.03h-16.18Z"/>
      <g>
        <path class="cls-2" d="m30.6,328.19l29.83-55.59,11.09-20.68c-8.34-5.31-15.99-11.83-22.62-19.49-5.12-5.89-9.64-12.44-13.45-19.64-26.73-50.64-7.33-113.58,43.24-140.28,29.21-15.42,62.55-15.43,90.65-2.94l11.09-20.68c-34.77-16.05-76.32-16.32-112.7,2.89C5.73,84.49-18.05,161.64,14.73,223.73c7.52,14.25,17.37,26.48,28.87,36.46l-13,68Z"/>
        <path class="cls-5" d="m47.46,258.84l-9.02,47.24,28.42-52.98c-7.56-5.13-14.52-11.27-20.65-18.34-5.3-6.09-9.97-12.87-13.9-20.31-27.64-52.37-7.59-117.46,44.72-145.08,29.16-15.4,62.31-15.94,90.71-4.34l7.75-14.45c-33.09-14.07-71.94-13.71-106.1,4.33C9.12,86.71-14,161.71,17.87,222.07c7.32,13.86,16.89,25.75,28.05,35.44l1.54,1.34h0ZM177.17,47.42c1.09.47,2.18.95,3.25,1.44l-11.09,20.68c-28.1-12.49-61.44-12.48-90.65,2.94C28.11,99.2,8.72,162.14,35.45,212.79c3.8,7.2,8.33,13.75,13.45,19.64,6.63,7.66,14.29,14.18,22.62,19.49l-40.92,76.27,13-68c-11.5-9.98-21.34-22.21-28.87-36.46C-18.05,161.64,5.73,84.49,67.72,51.77c35.24-18.6,75.35-18.93,109.44-4.33h0Z"/>
      </g>
    </g>
  </g>
</svg>