<svg width="48" height="48" viewBox="0 0 48 48" fill="none" xmlns="http://www.w3.org/2000/svg">
	<g clip-path="url(#clip0_56_502)">
		<path fill-rule="evenodd" clip-rule="evenodd" d="M33.6866 13.0959C31.2086 10.7325 27.9016 9.44494 24.48 9.49786C18.2187 9.49786 12.9011 13.722 11.0051 19.41C9.99973 22.3907 9.99973 25.6184 11.0051 28.5991H11.0139C12.9187 34.2783 18.2275 38.5025 24.4888 38.5025C27.7208 38.5025 30.4956 37.6758 32.6461 36.2156V36.2097C35.177 34.5341 36.9055 31.8974 37.4434 28.9166H24.48V19.6747H47.1175C47.3997 21.2797 47.532 22.92 47.532 24.5514C47.532 31.8511 44.9232 38.0227 40.3841 42.2027L40.3888 42.2063C36.4116 45.8749 30.9529 48.0002 24.48 48.0002C15.4056 48.0002 7.10718 42.8854 3.03296 34.781C-0.371021 27.9995 -0.371012 20.0097 3.03298 13.2282C7.10721 5.11504 15.4055 0.000152488 24.48 0.000152488C30.4414 -0.0703968 36.2 2.16954 40.5387 6.24377L33.6866 13.0959Z" fill="currentColor" />
	</g>
	<defs>
		<clipPath id="clip0_56_502">
			<rect width="48" height="48" fill="currentColor" />
		</clipPath>
	</defs>
</svg>
