<svg xmlns="http://www.w3.org/2000/svg" fill="none" viewBox="27.33 2.62 310.67 113.67">
	<path d="M103.025 24.5387L102.971 24.8214L103.188 25.0101C107.306 28.5853 110.833 32.9664 113.529 38.0734C125.273 60.32 116.755 87.9597 94.5419 99.6861C81.6782 106.477 67.0099 106.471 54.6485 100.939L58.1959 94.324C68.4178 98.7192 80.4673 98.6386 91.0419 93.0562C109.602 83.2579 116.722 60.1536 106.91 41.5677C105.516 38.9261 103.857 36.5205 101.976 34.3581C99.6424 31.6654 96.9686 29.3581 94.0604 27.4575L97.8602 20.3719L97.8602 20.3718L107.119 3.11604L103.025 24.5387Z" fill="url(#paint0_linear_107_141)" stroke="url(#paint1_linear_107_141)">
	</path>
	<path d="M43.6059 94.3592L43.6599 94.0763L43.4424 93.8876C39.3295 90.3201 35.8018 85.9391 33.1057 80.832C21.3615 58.5854 29.8765 30.9381 52.0967 19.2079C64.9602 12.417 79.6324 12.4304 91.9866 17.9663L88.4392 24.5813C78.2137 20.1786 66.1714 20.2553 55.5967 25.8378C37.0287 35.64 29.9091 58.7444 39.7248 77.3378C41.1192 79.9791 42.7779 82.3847 44.6546 84.5397C46.9885 87.2325 49.6624 89.5398 52.5706 91.4404L48.7709 98.526L48.7708 98.5261L39.5117 115.782L43.6059 94.3592Z" fill="url(#paint2_linear_107_141)" stroke="url(#paint3_linear_107_141)">
	</path>
	<path d="M146.51 85.0663L155.996 37.4849H179.983C185.358 37.4849 189.446 38.4592 192.247 40.4078C195.048 42.3111 196.448 45.0526 196.448 48.6326C196.448 51.5781 195.635 54.0704 194.009 56.1096C192.383 58.1488 190.192 59.7122 187.436 60.7998C184.681 61.8421 181.586 62.3632 178.153 62.3632L180.05 59.1005C184.432 59.1005 187.91 60.0521 190.485 61.9554C193.06 63.8586 194.348 66.5322 194.348 69.9762C194.348 73.4202 193.376 76.2524 191.434 78.4729C189.537 80.6933 186.939 82.3474 183.642 83.4349C180.389 84.5225 176.708 85.0663 172.597 85.0663H146.51ZM161.688 75.3461H173.342C175.691 75.3461 177.543 74.8703 178.898 73.9187C180.299 72.967 180.999 71.5623 180.999 69.7043C180.999 68.2995 180.48 67.2799 179.441 66.6455C178.402 66.0111 177.069 65.6939 175.443 65.6939H162.501L164.33 56.3815H175.104C176.685 56.3815 178.018 56.1776 179.102 55.7698C180.231 55.3619 181.067 54.7502 181.609 53.9345C182.151 53.1188 182.422 52.1219 182.422 50.9437C182.422 49.6295 181.925 48.6779 180.931 48.0888C179.937 47.4997 178.56 47.2051 176.798 47.2051H167.312L161.688 75.3461Z" fill="white">
	</path>
	<path d="M218.711 85.6781C214.781 85.6781 211.348 84.9983 208.411 83.6389C205.52 82.2341 203.262 80.2855 201.635 77.7931C200.009 75.2555 199.196 72.2873 199.196 68.8886C199.196 64.8102 200.122 61.185 201.974 58.0129C203.826 54.7955 206.424 52.2578 209.767 50.3999C213.109 48.5419 216.994 47.613 221.421 47.613C225.171 47.613 228.378 48.2927 231.043 49.6522C233.753 51.0116 235.831 52.9149 237.277 55.3619C238.768 57.7637 239.513 60.5732 239.513 63.7906C239.513 64.8782 239.445 65.9205 239.31 66.9174C239.174 67.9144 238.993 68.8886 238.768 69.8403H209.292L210.512 63.0429H232.805L227.452 65.0142C227.813 63.2468 227.745 61.7741 227.248 60.5959C226.797 59.3724 226.006 58.4434 224.877 57.809C223.793 57.1292 222.438 56.7894 220.811 56.7894C218.733 56.7894 217.017 57.3105 215.662 58.3528C214.352 59.395 213.358 60.8225 212.68 62.6351C212.048 64.4024 211.732 66.3283 211.732 68.4128C211.732 70.9505 212.432 72.8311 213.832 74.0546C215.232 75.2328 217.333 75.8219 220.134 75.8219C221.76 75.8219 223.341 75.5727 224.877 75.0742C226.458 74.5304 227.836 73.7827 229.01 72.8311L234.363 80.9199C232.059 82.6419 229.552 83.8654 226.842 84.5905C224.177 85.3155 221.466 85.6781 218.711 85.6781Z" fill="white">
	</path>
	<path d="M257.448 85.6781C254.603 85.6781 252.163 85.1343 250.13 84.0467C248.098 82.9138 246.652 81.2824 245.794 79.1526C244.936 76.9775 244.8 74.3945 245.387 71.4037L251.621 40H264.495L258.262 71.3357C258.036 72.7405 258.194 73.828 258.736 74.5984C259.278 75.3234 260.204 75.686 261.514 75.686C262.192 75.686 262.847 75.5953 263.479 75.4141C264.111 75.2328 264.744 74.9609 265.376 74.5984L267.003 83.5029C265.647 84.2733 264.134 84.8171 262.463 85.1343C260.836 85.4968 259.165 85.6781 257.448 85.6781ZM242.406 59.2364L244.371 49.5842H270.933L269.035 59.2364H242.406Z" fill="white">
	</path>
	<path d="M271.493 85.0663L278.811 48.2247H291.617L284.299 85.0663H271.493ZM287.01 44.1463C284.751 44.1463 282.944 43.5346 281.589 42.3111C280.279 41.0422 279.624 39.5241 279.624 37.7568C279.624 35.6723 280.369 33.9277 281.86 32.5229C283.396 31.1181 285.406 30.4157 287.89 30.4157C290.149 30.4157 291.956 31.0048 293.311 32.183C294.666 33.3612 295.344 34.834 295.344 36.6013C295.344 38.8217 294.576 40.6344 293.04 42.0392C291.504 43.4439 289.494 44.1463 287.01 44.1463Z" fill="white">
	</path>
	<path d="M288.061 85.0663L309.812 62.7031L308.05 69.2285L296.735 48.2247H310.219L317.198 61.6835L311.303 61.6155L323.838 48.2247H338L317.198 69.9082L318.282 63.1789L330.208 85.0663H316.52L309.338 71.1997H315.436L302.63 85.0663H288.061Z" fill="white">
	</path>
	<path fill-rule="evenodd" clip-rule="evenodd" d="M73.2548 88.6768C89.3432 88.6768 102.385 75.6346 102.385 59.5463C102.385 43.4579 89.3432 30.4157 73.2548 30.4157C57.1665 30.4157 44.1243 43.4579 44.1243 59.5463C44.1243 75.6346 57.1665 88.6768 73.2548 88.6768ZM64.3045 44.5526L58.6895 72.8264H74.1307C76.5639 72.8264 78.743 72.5032 80.6682 71.857C82.6201 71.2107 84.1575 70.2279 85.2805 68.9084C86.4302 67.589 87.0051 65.906 87.0051 63.8595C87.0051 61.813 86.2431 60.2243 84.719 59.0934C84.2808 58.7682 83.7984 58.4898 83.2719 58.2581C84.7359 57.621 85.9134 56.7415 86.8046 55.6197C87.7671 54.408 88.2484 52.927 88.2484 51.1767C88.2484 49.0495 87.4195 47.4204 85.7618 46.2894C84.104 45.1315 81.6842 44.5526 78.5024 44.5526H64.3045ZM74.5719 67.0504H67.6735L68.8153 61.3149H75.8152C76.7778 61.3149 77.5666 61.5034 78.1815 61.8804C78.7965 62.2573 79.104 62.8632 79.104 63.698C79.104 64.802 78.6896 65.6367 77.8607 66.2022C77.0585 66.7677 75.9623 67.0504 74.5719 67.0504ZM69.9169 55.7813L71.0024 50.3285H76.6174C77.6601 50.3285 78.4757 50.5035 79.0639 50.8536C79.6521 51.2037 79.9462 51.7691 79.9462 52.55C79.9462 53.2501 79.7858 53.8425 79.465 54.3272C79.1441 54.8119 78.6494 55.1754 77.981 55.4178C77.3393 55.6601 76.5505 55.7813 75.6147 55.7813H69.9169Z" fill="url(#paint4_linear_107_141)">
	</path>
	<defs>
		<linearGradient id="paint0_linear_107_141" x1="89.091" y1="14.2909" x2="98.1252" y2="106.19" gradientUnits="userSpaceOnUse">
			<stop stop-color="#76FF9C">
			</stop>
			<stop offset="1" stop-color="#4BBF6B">
			</stop>
		</linearGradient>
		<linearGradient id="paint1_linear_107_141" x1="127.493" y1="-51.3533" x2="79.2563" y2="104.191" gradientUnits="userSpaceOnUse">
			<stop stop-color="white">
			</stop>
			<stop offset="1" stop-color="white" stop-opacity="0">
			</stop>
		</linearGradient>
		<linearGradient id="paint2_linear_107_141" x1="65.0774" y1="15.9803" x2="74.1115" y2="107.879" gradientUnits="userSpaceOnUse">
			<stop stop-color="#76FF9C">
			</stop>
			<stop offset="1" stop-color="#4BBF6B">
			</stop>
		</linearGradient>
		<linearGradient id="paint3_linear_107_141" x1="22.1146" y1="152.873" x2="83.1152" y2="18.9977" gradientUnits="userSpaceOnUse">
			<stop stop-color="white">
			</stop>
			<stop offset="1" stop-color="white" stop-opacity="0">
			</stop>
		</linearGradient>
		<linearGradient id="paint4_linear_107_141" x1="87.9513" y1="33.0401" x2="60.6578" y2="90.7763" gradientUnits="userSpaceOnUse">
			<stop stop-color="#76FF9C">
			</stop>
			<stop offset="1" stop-color="#4BBF6B">
			</stop>
		</linearGradient>
	</defs>
</svg>
