<svg width="17" height="10" viewBox="0 0 17 10" fill="none" xmlns="http://www.w3.org/2000/svg">
	<g clip-path="url(#clip0_748_24)">
		<path d="M10.0007 4.98505C10.0007 7.488 7.98803 9.51712 5.50516 9.51712C3.0223 9.51712 1.00977 7.48862 1.00977 4.98505C1.00977 2.48149 3.02246 0.453125 5.50516 0.453125C7.98786 0.453125 10.0007 2.48211 10.0007 4.98505ZM14.9324 4.98505C14.9324 7.34127 13.9259 9.25117 12.6846 9.25117C11.4432 9.25117 10.4368 7.34065 10.4368 4.98505C10.4368 2.62945 11.4432 0.718918 12.6846 0.718918C13.9259 0.718918 14.9324 2.62945 14.9324 4.98505ZM16.9495 4.98505C16.9495 7.0961 16.5955 8.80731 16.1589 8.80731C15.7224 8.80731 15.3683 7.09548 15.3683 4.98505C15.3683 2.8746 15.7224 1.16277 16.1591 1.16277C16.5958 1.16277 16.9495 2.87415 16.9495 4.98505Z" fill="currentColor" />
	</g>
	<defs>
		<clipPath id="clip0_748_24">
			<rect width="16" height="9.11392" fill="white" transform="translate(0.972656 0.453125)" />
		</clipPath>
	</defs>
</svg>
