<svg width="24" height="24" viewBox="0 0 24 24" fill="none" xmlns="http://www.w3.org/2000/svg">
<path fill-rule="evenodd" clip-rule="evenodd" d="M12 20.8C16.8601 20.8 20.8 16.8601 20.8 12C20.8 7.13989 16.8601 3.2 12 3.2C7.13989 3.2 3.2 7.13989 3.2 12C3.2 16.8601 7.13989 20.8 12 20.8ZM12 22C17.5228 22 22 17.5228 22 12C22 6.47715 17.5228 2 12 2C6.47715 2 2 6.47715 2 12C2 17.5228 6.47715 22 12 22Z" fill="currentColor"/>
<path fill-rule="evenodd" clip-rule="evenodd" d="M12.8489 12L16.4247 8.42427L15.5761 7.57574L12.0004 11.1515L8.4247 7.57574L7.57617 8.42427L11.1519 12L7.57617 15.5757L8.4247 16.4243L12.0004 12.8485L15.5761 16.4243L16.4247 15.5757L12.8489 12Z" fill="currentColor"/>
</svg>
