<svg width="253" height="58" viewBox="0 0 253 58" fill="none" xmlns="http://www.w3.org/2000/svg">
	<path d="M98.2448 17.8462C99.4284 19.0359 100.612 20.2257 101.796 21.4154C102.979 22.6051 102.979 24.9846 102.979 27.3641C102.979 29.7436 102.979 32.1231 101.796 33.3128C101.796 36.8821 99.4284 38.0718 98.2448 39.2616C95.8774 39.2616 94.6937 40.4513 92.3264 40.4513C91.1427 40.4513 89.9591 40.4513 88.7754 39.2616C87.5917 39.2616 86.408 38.0718 85.2244 38.0718V49.9693H78.1223V17.8462H84.0407L85.2244 20.2257C87.5917 17.8462 89.9591 16.6564 93.5101 16.6564C94.6938 16.6564 97.0611 16.6564 98.2448 17.8462ZM94.6938 33.3128C95.8774 32.1231 97.0611 30.9334 97.0611 28.5539C97.0611 26.1744 95.8774 24.9846 94.6938 23.7949C93.5101 22.6052 92.3264 22.6052 91.1427 22.6052C89.9591 22.6052 88.7754 22.6052 87.5917 23.7949C86.408 23.7949 86.408 24.9846 85.2244 26.1744V30.9334C85.2244 32.1231 86.408 33.3128 87.5917 33.3128C87.5917 34.5026 88.7754 34.5026 89.9591 34.5026C92.3264 34.5026 93.5101 34.5026 94.6938 33.3128Z" fill="#3D3F4F" />
	<path d="M107.714 22.6051C108.898 21.4154 110.082 19.0359 112.449 19.0359C114.816 17.8461 116 17.8461 118.367 17.8461C120.735 17.8461 123.102 17.8461 124.286 19.0359C125.469 20.2256 127.837 21.4154 129.02 23.7949C130.204 24.9846 130.204 27.3641 130.204 29.7436C130.204 32.1231 130.204 33.3128 129.02 35.6923C127.837 36.882 126.653 39.2615 124.286 39.2615C123.102 40.4513 120.735 40.4513 118.367 40.4513C116 40.4513 113.633 40.4513 112.449 39.2615C111.265 38.0718 108.898 36.882 107.714 35.6923C106.531 34.5025 106.531 32.1231 106.531 29.7436C106.531 26.1743 106.531 23.7949 107.714 22.6051ZM114.816 33.3128C116 34.5025 117.184 34.5025 118.367 34.5025C119.551 34.5025 120.735 33.3128 121.918 33.3128C123.102 33.3128 123.102 30.9333 123.102 28.5538C123.102 26.1743 123.102 24.9846 121.918 23.7949C120.735 22.6051 119.551 22.6051 118.367 22.6051C117.184 22.6051 116 23.7949 114.816 23.7949C113.633 24.9846 113.633 26.1743 113.633 28.5538C113.633 29.7436 113.633 32.1231 114.816 33.3128Z" fill="#3D3F4F" />
	<path d="M142.041 0V39.2616H134.939V0H142.041Z" fill="#3D3F4F" />
	<path d="M170.449 17.8461L156.245 49.9692H149.143L153.877 38.0718L144.408 17.8461H152.694L158.612 30.9333L164.53 17.8461C163.347 17.8461 170.449 17.8461 170.449 17.8461Z" fill="#3D3F4F" />
	<path d="M196.49 17.8462V39.2616C196.49 41.6411 196.49 42.8308 195.306 45.2103C194.122 47.5898 192.939 47.5898 190.571 48.7795C188.204 49.9693 185.837 49.9693 183.469 49.9693C182.286 49.9693 179.918 49.9693 178.735 48.7795C177.551 48.7795 176.367 47.5898 175.184 47.5898C174 47.5898 172.816 46.4 171.633 45.2103L175.184 40.4513C177.551 42.8308 178.735 42.8308 179.918 44.0205C181.102 45.2103 182.286 45.2103 183.469 45.2103C184.653 45.2103 187.02 45.2103 188.204 44.0205C189.388 42.8308 189.388 41.6411 189.388 40.4513V36.8821C188.204 38.0718 188.204 39.2616 185.837 39.2616C184.653 40.4513 182.286 40.4513 181.102 40.4513C179.918 40.4513 177.551 40.4513 175.184 39.2616C174 38.0718 172.816 36.8821 171.633 35.6923C170.449 32.1231 170.449 30.9334 170.449 28.5539C170.449 26.1744 170.449 24.9846 171.633 22.6052C172.816 20.2257 174 19.0359 176.367 17.8462C177.551 16.6564 179.918 16.6564 181.102 16.6564C182.286 16.6564 184.653 16.6564 185.837 17.8462C187.02 17.8462 188.204 19.0359 189.388 20.2257L190.571 19.0359H196.49V17.8462ZM189.388 30.9334V26.1744C189.388 24.9846 188.204 23.7949 187.02 23.7949C185.837 23.7949 184.653 22.6052 183.469 22.6052C182.286 22.6052 179.918 23.7949 178.735 23.7949C177.551 24.9846 177.551 26.1744 177.551 28.5539C177.551 29.7436 177.551 32.1231 178.735 33.3128C179.918 34.5026 181.102 35.6923 183.469 35.6923C185.837 34.5026 188.204 33.3128 189.388 30.9334Z" fill="#3D3F4F" />
	<path d="M202.408 22.6052C203.592 20.2257 204.775 19.0359 205.959 17.8462C208.326 16.6564 209.51 16.6564 211.878 16.6564C214.245 16.6564 216.612 16.6564 217.796 17.8462C218.98 19.0359 221.347 20.2257 222.531 21.4154C223.714 23.7949 223.714 24.9846 223.714 27.3641C223.714 29.7436 223.714 32.1231 222.531 33.3128C221.347 35.6923 220.163 36.8821 217.796 38.0718C216.612 39.2616 214.245 39.2616 211.878 39.2616C209.51 39.2616 207.143 39.2616 205.959 38.0718C203.592 36.8821 202.408 35.6923 201.224 34.5026C200.041 32.1231 200.041 30.9334 200.041 28.5539C200.041 26.1744 201.224 23.7949 202.408 22.6052ZM208.326 33.3128C209.51 34.5026 210.694 34.5026 211.878 34.5026C213.061 34.5026 214.245 33.3128 215.429 33.3128C216.612 33.3128 217.796 29.7436 217.796 28.5539C217.796 26.1744 217.796 24.9846 216.612 23.7949C215.429 22.6052 214.245 22.6052 213.061 22.6052C211.878 22.6052 210.694 23.7949 209.51 23.7949C208.326 24.9846 208.326 26.1744 208.326 28.5539C207.143 29.7436 208.326 32.1231 208.326 33.3128Z" fill="#3D3F4F" />
	<path d="M249.755 19.0359C250.939 20.2257 252.122 21.4154 252.122 23.7949V40.4513H245.02V26.1744C245.02 23.7949 243.837 22.6052 241.469 22.6052C240.286 22.6052 239.102 23.7949 237.918 24.9846C236.735 26.1744 235.551 28.5539 235.551 30.9334V39.2616H229.633V17.8462H235.551V21.4154C236.735 20.2257 237.918 19.0359 239.102 17.8462C240.286 16.6564 242.653 16.6564 243.837 16.6564C246.204 16.6564 247.388 17.8462 249.755 19.0359Z" fill="#3D3F4F" />
	<path d="M48.5306 17.8461C47.347 16.6563 46.1633 16.6563 44.9796 17.8461L35.5102 22.6051L29.5919 26.1743L20.1225 32.123C18.9388 33.3128 17.7551 33.3128 16.5714 32.123L8.28572 27.364C7.10204 27.364 7.10204 26.1743 7.10204 23.7948V15.4666C7.10204 14.2769 8.28572 13.0871 9.46939 11.8974L16.5714 8.32813C17.7551 7.13839 18.9388 7.13839 20.1225 8.32813L27.2245 11.8974C28.4082 13.0871 29.5919 14.2769 29.5919 15.4666V21.4153L35.5102 17.8461V11.8974C35.5102 10.7076 34.3265 9.51788 33.1429 8.32813L20.1225 1.18967C18.9388 -7.26879e-05 17.7551 -7.26879e-05 16.5714 1.18967L2.36735 8.32813C1.18367 9.51788 0 10.7076 0 11.8974V27.364C0 29.7435 1.18367 30.9333 2.36735 30.9333L16.5714 39.2615C17.7551 40.4512 18.9388 40.4512 20.1225 39.2615L29.5919 34.5025L35.5102 30.9333L44.9796 26.1743C46.1633 24.9846 47.347 24.9846 48.5306 26.1743L55.6327 29.7435C56.8164 29.7435 58 30.9333 58 32.123V40.4512C58 41.641 56.8164 42.8307 55.6327 44.0205L48.5306 48.7794C47.347 49.9692 46.1633 49.9692 44.9796 48.7794L37.8776 44.0205C36.6939 44.0205 35.5102 42.8307 35.5102 41.641V35.6922L29.5919 39.2615V45.2102C29.5919 46.3999 30.7755 47.5897 31.9592 48.7794L46.1633 57.1076C47.347 58.2974 48.5306 58.2974 49.7143 57.1076L63.9184 48.7794C63.9184 47.5897 65.1021 46.3999 65.1021 45.2102V28.5538C65.1021 27.364 63.9184 26.1743 62.7347 24.9846L48.5306 17.8461Z" fill="#3D3F4F" />
</svg>
