<svg width="159" height="58" viewBox="0 0 159 58" fill="none" xmlns="http://www.w3.org/2000/svg">
	<path fill-rule="evenodd" clip-rule="evenodd" d="M56.9975 17.4537V34.9074H61.3093H65.6212V28.1944C65.6212 23.7639 65.6212 21.3472 65.6212 21.0787C65.7559 20.4074 65.8907 19.7361 66.2949 19.1991C66.8339 18.2593 67.7771 17.8565 68.8551 17.9907C70.3373 18.125 71.2805 18.9306 71.55 20.6759C71.55 20.9444 71.55 23.6296 71.55 27.9259V34.7732H75.8619H80.1737V26.7176C80.1737 19.8704 80.1737 18.5278 80.039 17.8565C79.7695 15.4398 78.961 13.5602 77.4788 12.2176C76.2661 11.0093 74.7839 10.338 73.0322 10.0694C72.3585 9.93519 70.472 10.0694 69.9331 10.2037C68.3161 10.6065 67.1034 11.1435 66.0254 12.3519L65.3517 12.8889V6.44444V0H61.0398H56.728V17.4537H56.9975ZM148.625 0.26852C148.355 0.805557 139.597 21.8843 139.597 21.8843C139.597 21.8843 141.887 21.8843 144.717 21.8843H149.837L154.419 11.0093C156.979 4.96759 159 0 159 0C159 0 156.709 0 153.88 0H148.759L148.625 0.26852ZM38.133 10.2037C36.2466 10.4722 34.7644 11.0093 33.2822 11.9491C30.3178 13.8287 28.4314 17.0509 27.8924 20.8102C27.6229 22.5556 27.7576 24.7037 28.1619 26.3148C29.2398 30.4769 32.0695 33.6991 35.7076 34.9074C37.0551 35.3102 37.5941 35.4445 39.211 35.4445C40.4237 35.4445 40.828 35.4444 41.2322 35.3102C42.9839 34.9074 44.1966 34.2361 45.2746 33.162L45.8136 32.625V33.6991V34.7732H49.9907H54.1678V22.6898V10.6065H49.9907H45.8136V11.6806V12.7546L45.4093 12.3519C44.4661 11.2778 43.1186 10.6065 41.367 10.2037C40.828 10.0694 40.5585 10.0694 39.4805 10.0694C38.8068 10.2037 38.2678 10.2037 38.133 10.2037ZM93.1093 10.2037C90.8186 10.4722 88.3932 11.5463 86.6415 12.8889C83.2729 15.7083 81.5212 20.1389 82.1949 24.7037C82.8686 29.8056 86.5068 33.6991 91.6271 35.0417C92.7051 35.3102 93.7831 35.4445 95.1305 35.4445C97.5559 35.4445 99.3076 35.0417 101.194 34.1019C104.967 32.2222 107.392 28.8657 107.931 24.7037C108.066 23.6296 108.066 21.8843 107.931 20.9444C107.662 18.9306 106.853 16.9167 105.641 15.3056C105.102 14.6343 104.024 13.4259 103.35 12.8889C101.464 11.412 99.3076 10.4722 96.8822 10.2037C95.939 10.0694 94.0525 10.0694 93.1093 10.2037ZM120.597 10.2037C118.307 10.4722 116.016 11.412 114.264 12.8889C113.591 13.4259 112.378 14.6343 111.974 15.3056C110.761 16.9167 110.087 18.9306 109.683 20.9444C109.548 21.8843 109.548 23.7639 109.683 24.7037C110.492 30.0741 114.399 34.2361 119.789 35.3102C120.867 35.5787 121.406 35.5787 122.619 35.5787C124.909 35.5787 126.931 35.1759 128.817 34.1019C133.803 31.5509 136.497 25.912 135.285 20.1389C134.207 14.7685 129.895 10.875 124.37 10.2037C123.427 10.0694 121.541 10.0694 120.597 10.2037ZM0 10.7407C0 10.7407 2.29068 16.2454 5.12034 22.9583C7.95 29.6713 10.2407 35.1759 10.2407 35.1759C10.2407 35.1759 9.4322 37.1898 8.35424 39.6065C7.27627 42.0232 6.4678 43.9028 6.4678 44.037C6.4678 44.1713 8.48898 44.037 11.0492 44.037H15.6305L22.5025 27.5232C26.2754 18.3935 29.3746 11.0093 29.3746 10.875C29.3746 10.875 28.4314 10.7407 24.7932 10.875H20.2119L17.3822 17.8565C16.1695 21.6157 14.9568 24.838 14.9568 24.838C14.9568 24.838 13.7441 21.6157 12.1271 17.8565L9.4322 10.875H4.7161C2.15593 10.7407 0 10.7407 0 10.7407ZM42.3102 17.9907C44.0619 18.3935 45.4093 19.7361 45.9483 21.4815C46.083 22.1528 46.083 23.3611 45.9483 24.0324C45.5441 25.7778 44.1966 27.1204 42.4449 27.5232C41.7712 27.6574 40.5585 27.6574 39.8847 27.5232C38.4025 27.1204 37.0551 26.0463 36.5161 24.7037C35.8424 23.2269 36.1119 21.3472 36.9203 20.0046C38.1331 18.2593 40.1542 17.588 42.3102 17.9907ZM96.0737 18.125C97.9602 18.3935 99.4424 19.8704 99.8466 21.75C99.9814 22.4213 99.9814 23.4954 99.8466 24.1667C99.4424 25.912 98.0949 27.1204 96.478 27.6574C95.939 27.7917 94.4568 27.7917 93.9178 27.6574C92.5703 27.2546 91.4924 26.3148 90.8186 25.1065C90.4144 24.3009 90.4144 23.8981 90.4144 22.9583C90.4144 22.1528 90.5492 21.75 90.8186 21.0787C91.2229 20.2732 91.7619 19.4676 92.5703 18.9306C93.3788 18.125 94.7263 17.8565 96.0737 18.125ZM123.427 18.125C125.044 18.3935 126.392 19.4676 126.931 20.9444C127.2 21.6157 127.335 22.0185 127.335 22.8241C127.335 23.7639 127.2 24.1667 126.931 24.9722C126.392 26.1806 125.179 27.1204 123.831 27.5232C123.292 27.6574 121.81 27.6574 121.271 27.5232C119.654 27.1204 118.307 25.7778 117.903 24.0324C117.768 23.3611 117.768 22.1528 117.903 21.4815C118.442 19.3333 120.328 17.8565 122.484 17.8565C122.753 17.9907 123.158 17.9907 123.427 18.125ZM141.753 24.0324C139.192 24.3009 137.306 26.1806 136.767 28.5972C136.632 29.2685 136.632 30.4769 136.767 31.1482C137.306 33.2963 138.923 34.7732 141.079 35.3102C141.348 35.3102 141.887 35.4445 142.292 35.4445C143.908 35.4445 145.256 34.9074 146.334 33.8333C147.547 32.625 147.951 31.4167 147.951 29.8056C147.951 27.7917 147.008 26.0463 145.391 25.1065C144.313 24.1667 142.831 23.8982 141.753 24.0324ZM70.7415 37.1898C68.9898 37.7269 68.1814 39.7407 69.1246 41.2176C69.3941 41.6204 69.933 42.1574 70.3373 42.2917C70.7415 42.4259 70.7415 42.4259 71.55 42.4259C72.2237 42.4259 72.3585 42.4259 72.7627 42.2917C73.3017 42.0232 73.8407 41.4861 74.1102 40.9491C74.7839 39.6065 74.1102 37.9954 72.7627 37.3241C72.3585 37.0556 72.2237 37.0556 71.6847 37.0556C71.1458 37.0556 71.011 37.0556 70.7415 37.1898ZM63.4653 37.3241C61.1746 37.7269 59.6924 39.2037 59.0186 41.6204C58.8839 42.0232 58.8839 42.4259 58.8839 42.963V43.9028H57.9407H56.9975V45.9167V47.9306H57.9407H58.8839V52.7639V57.5972H61.4441H64.0042V52.7639V47.9306H65.7559H67.5076V45.9167V43.9028H65.7559H64.0042V43.5C64.139 42.5602 64.5432 41.8889 65.3517 41.7546C65.8907 41.6204 66.6992 41.6204 67.2381 41.8889C67.5076 42.0232 67.6424 42.0232 67.6424 42.0232C67.6424 42.0232 67.6424 41.0833 67.6424 39.875V37.7269L67.2381 37.5926C66.6992 37.3241 66.0254 37.3241 65.0822 37.3241C64.4085 37.1898 63.8695 37.3241 63.4653 37.3241ZM83.9466 43.6343C82.8687 43.9028 82.0602 44.4398 81.5212 45.1111L81.2517 45.5139V44.7083V43.9028H78.6915H76.1314V50.75V57.5972H78.6915H81.2517V53.838C81.2517 51.6898 81.2517 49.9445 81.2517 49.6759C81.3864 49.1389 81.6559 48.6019 81.9254 48.3333C82.5992 47.7963 83.8119 47.9306 84.3508 48.6019C84.7551 49.1389 84.7551 49.1389 84.7551 53.4352V57.463H87.3153H89.8754V52.8982C89.8754 48.0648 89.8754 47.5278 89.6059 46.588C89.3364 45.7824 89.0669 45.1111 88.3932 44.5741C87.8542 44.037 87.3153 43.6343 86.5068 43.5C85.833 43.5 84.4856 43.5 83.9466 43.6343ZM96.7475 43.5C95.939 43.6343 94.7263 44.037 94.0526 44.5741C92.5703 45.6481 91.6271 47.2593 91.2229 49.2731C91.0881 50.0787 91.0881 51.5556 91.2229 52.3611C91.4924 53.5695 91.8966 54.7778 92.5703 55.5833C93.5136 56.7917 94.7263 57.5972 96.2085 57.8657C97.017 58 98.3644 58 99.0381 57.7315C99.8466 57.463 100.386 57.1944 101.059 56.6574L101.598 56.1204V56.7917V57.463H104.158H106.719V50.6157V43.7685H104.158H101.598V44.4398V45.1111L101.194 44.9769C100.52 44.3056 99.5771 43.7685 98.4992 43.6343C98.0949 43.5 97.1517 43.5 96.7475 43.5ZM116.286 43.6343C115.342 43.7685 114.399 44.4398 113.86 45.1111L113.591 45.3796V44.5741V43.7685H111.031H108.47V50.6157V57.463H111.031H113.591V53.5695C113.591 49.4074 113.591 49.4074 113.86 48.7361C114.13 48.1991 114.669 47.9306 115.208 47.9306C115.747 47.9306 116.016 48.0648 116.42 48.3333C116.959 48.8704 116.959 48.7361 116.959 53.3009V57.3287H119.519H122.08V52.3611C122.08 47.3935 122.08 47.3935 121.945 46.8565C121.81 46.588 121.675 46.0509 121.541 45.6482C121.271 45.1111 121.136 44.9769 120.732 44.5741C120.193 44.037 119.789 43.7685 119.25 43.5C118.307 43.5 117.229 43.3657 116.286 43.6343ZM129.625 43.6343C127.335 44.037 125.583 45.1111 124.505 46.9907C124.236 47.5278 123.966 48.1991 123.697 48.8704C123.562 49.5417 123.562 49.6759 123.562 50.75C123.562 51.9583 123.562 52.3611 123.966 53.3009C124.775 55.5833 126.661 57.3287 129.221 57.8657C129.625 58 130.03 58 130.973 58C132.32 58 132.859 57.8657 133.803 57.463L134.342 57.1944V54.912V52.6296L133.937 52.8982C133.264 53.3009 132.859 53.4352 132.051 53.4352C131.242 53.4352 130.838 53.4352 130.299 53.1667C129.76 52.8982 129.356 52.4954 129.086 51.9583C128.952 51.5556 128.952 51.5556 128.952 50.8843C128.952 50.3472 128.952 50.213 129.086 49.8102C129.491 48.7361 130.434 48.1991 131.781 48.0648C132.725 48.0648 133.129 48.0648 134.476 48.7361C134.476 48.7361 134.476 47.662 134.476 46.4537V44.1713L134.072 44.037C132.59 43.5 130.973 43.3657 129.625 43.6343ZM141.214 43.6343C137.306 44.3056 134.881 47.662 135.15 51.5556C135.285 52.8982 135.689 54.1065 136.363 55.0463C137.306 56.5232 138.788 57.463 140.675 57.8657C141.483 58 143.639 58 144.582 57.8657C145.93 57.5972 147.142 56.9259 148.086 55.9861C148.49 55.5833 149.164 54.6435 149.164 54.6435C149.164 54.6435 148.22 54.2407 147.008 53.838L144.852 53.0324L144.582 53.3009C144.178 53.7037 143.908 53.838 143.369 53.9722C141.887 54.375 140.405 53.5695 140.136 52.2269V51.9583H144.852H149.568V50.75C149.568 49.9445 149.568 49.4074 149.433 49.1389C149.164 47.5278 148.49 46.4537 147.547 45.3796C146.603 44.4398 145.525 43.9028 144.043 43.6343C143.504 43.5 141.887 43.5 141.214 43.6343ZM68.9898 50.75V57.5972H71.55H74.1102V50.75V43.9028H71.55H68.9898V50.75ZM143.235 47.3935C143.639 47.5278 143.774 47.662 144.178 47.9306C144.447 48.1991 144.717 48.4676 144.717 48.8704V49.1389H142.426C139.866 49.1389 140.001 49.1389 140.27 48.6019C140.675 47.662 141.887 47.125 143.235 47.3935ZM99.7119 48.0648C100.386 48.1991 101.194 48.8704 101.464 49.5417C102.137 51.0185 101.464 52.7639 99.8466 53.3009C99.3076 53.4352 98.4992 53.4352 97.9602 53.3009C97.1517 53.0324 96.3432 52.3611 96.2085 51.5556C96.0737 51.1528 96.0737 51.0185 96.0737 50.6157C96.0737 50.0787 96.0737 49.9445 96.3432 49.5417C96.8822 48.3333 98.2297 47.7963 99.7119 48.0648Z" fill="#3D3F4F" />
</svg>
